# xmcd
#
# Track frame offsets: 
#        150
#        21917
#        43914
#        62672
#        74031
#        89764
#        100365
#        116951
#        134395
#        180276
#        195146
#        211928
#        231912
#
# Disc length: 3233 seconds
#
# Revision: 1
# Processed by: cddbd v1.5.1PL0 Copyright (c) Steve Scherf et al.
# Submitted via: ExactAudioCopy v0.95a5
#
DISCID=c00c9f0d
DTITLE=Micky Moody - I Eat Them For Breakfast
DYEAR=2000
DGENRE=Blues
TTITLE0=On Common Ground
TTITLE1=Alimony
TTITLE2=Delta Bluesman
TTITLE3=Mixed-Up Blues
TTITLE4=My Lady Friend
TTITLE5=14-String Rag
TTITLE6=Me And My Guitar
TTITLE7=Just Leave Me Alone
TTITLE8=Turning Point (Parts 1-5)
TTITLE9=Obsession
TTITLE10=Let This Boy Boogie
TTITLE11=My Word For Trouble (W.O.M.A.N.)
TTITLE12=Journey Home
EXTD=
EXTT0=
EXTT1=
EXTT2=
EXTT3=
EXTT4=
EXTT5=
EXTT6=
EXTT7=
EXTT8=
EXTT9=
EXTT10=
EXTT11=
EXTT12=
PLAYORDER=
